<svg xmlns="http://www.w3.org/2000/svg" viewBox="0 0 674 674"><defs><clipPath id="a"><path fill="none" d="M0 0h674v674H0z"/></clipPath></defs><g data-name="Layer 2"><g data-name="Layer 1"><path d="M24.87 24.87h624.26v624.26H24.87zM0 674h674V0H0z"/><path d="M195.82 214.44v20.65h-77.76v-92.74h22.95v72.09h54.81zM343.33 203.5l-12.57-32-12.58 32zm5.79 18.09H312.4l-5.4 13.5h-25.92l36.72-92.75h25.92l36.72 92.75h-25.91z"/><g clip-path="url(#a)"><path d="M487.49 188.91c0-9.39 8-17.56 18.43-17.56a17.85 17.85 0 0 1 17.56 17.56c0 10.08-8 18.25-17.56 18.25a18.18 18.18 0 0 1-18.43-18.25"/></g><path d="M146.27 311.28h-28.21v-20.65h79.38v20.65h-28.09v72.09h-23.08v-72.09zM318.13 290.63h23.08v92.74h-23.08zM462.21 290.63h23.1l40.35 54.81v-54.81h23.1v92.74h-23.1l-40.35-54.81v54.81h-23.1v-92.74zM318.14 459.56h-28.21v-20.65h79.38v20.65h-28.09v72.09h-23.08v-72.09zM118.03 471.46h79.45v22.81h-79.45zM518.87 500.07l-12.57-32-12.58 32zm5.79 18.09h-36.73l-5.39 13.5h-25.93l36.72-92.75h25.92L556 531.66h-25.94z"/></g></g></svg>