<svg xmlns="http://www.w3.org/2000/svg" viewBox="0 0 57.5 57.5"><g data-name="Layer 2"><g data-name="Layer 1"><path d="M2.12 55.38h53.26V2.12H2.12zM57.5 57.5H0V0h57.5z"/><path d="M16.71 18.29v1.77h-6.64v-7.92h1.96v6.15h4.68zm12.58-.93l-1.07-2.73-1.07 2.73zm.49 1.54h-3.13l-.46 1.15H24l3.13-7.91h2.21l3.13 7.91h-2.22zm-17.3 7.66h-2.41v-1.77h6.77v1.77h-2.39v6.15h-1.97v-6.15zm14.66-1.77h1.97v7.91h-1.97zm12.29 0h1.97l3.44 4.68v-4.68h1.97v7.92h-1.97l-3.44-4.68v4.68h-1.97v-7.92zM27.14 39.21h-2.41v-1.77h6.78v1.77h-2.4v6.15h-1.97v-6.15zm-17.07 1.01h6.78v1.95h-6.78zm34.2 2.44l-1.07-2.73-1.07 2.73zm.49 1.54h-3.13l-.46 1.15H39l3.13-7.91h2.17l3.13 7.91h-2.21z"/></g></g></svg>